<svg xmlns="http://www.w3.org/2000/svg" viewBox="0 0 1080.9 222"><defs><style>.cls-1{fill:none;stroke:#424242;stroke-miterlimit:10;}.cls-2{font-size:96.85px;letter-spacing:0.1em;}.cls-2,.cls-3,.cls-5,.cls-6,.cls-7{fill:#424242;}.cls-2,.cls-3,.cls-9{font-family:Moon-Light, Moon;}.cls-3,.cls-5,.cls-6,.cls-7{font-size:65.77px;}.cls-10,.cls-4,.cls-5,.cls-6,.cls-7{font-family:Moon-Bold, Moon;}.cls-10,.cls-4,.cls-5,.cls-6,.cls-8{font-weight:700;}.cls-4,.cls-6{letter-spacing:0em;}</style></defs><title>资源 1</title><g id="图层_2" data-name="图层 2"><g id="图层_3" data-name="图层 3"><g id="logo"><g id="框"><rect id="_矩形_中" data-name="&lt;矩形&gt;中" class="cls-1" x="9.55" y="9.55" width="202.9" height="202.9"/><rect id="_矩形_下" data-name="&lt;矩形&gt;下" class="cls-1" x="18.6" y="18.6" width="202.9" height="202.9"/><rect id="_矩形_上" data-name="&lt;矩形&gt;上" class="cls-1" x="0.5" y="0.5" width="202.9" height="202.9"/></g><g id="文字"><text class="cls-2" transform="translate(38.3 100.94)">S</text><text class="cls-2" transform="translate(125.63 100.94)">C</text><text class="cls-2" transform="translate(31.89 193.33)">D</text><text class="cls-2" transform="translate(116.29 193.33)">M</text></g></g><text class="cls-3" transform="translate(244.99 97.68) scale(1.19 1)">Lab </text><text class="cls-3" transform="translate(406.91 97.68) scale(0.83 0.7)">OF</text><text class="cls-3" transform="translate(479.65 97.68) scale(1.19 1)"> <tspan class="cls-4" x="16.32" y="0">S</tspan></text><text class="cls-5" transform="translate(543.97 97.68) scale(0.83 0.7)">ERVICE</text><text class="cls-6" transform="translate(724.44 97.68) scale(1.19 1)"><tspan xml:space="preserve"> C</tspan></text><text class="cls-7" transform="translate(796.83 97.68) scale(0.83 0.7)"><tspan class="cls-8">OMPUTING</tspan><tspan class="cls-9" x="-288.35" y="112.76">AND</tspan></text><text class="cls-3" transform="translate(668.16 176.61) scale(1.19 1)"> <tspan class="cls-10" x="16.32" y="0">D</tspan></text><text class="cls-5" transform="translate(742.24 176.61) scale(0.83 0.7)">aTA</text><text class="cls-6" transform="translate(844.64 176.61) scale(1.19 1)"><tspan xml:space="preserve"> M</tspan></text><text class="cls-5" transform="translate(931.3 176.61) scale(0.83 0.7)">iNING</text></g></g></svg>