<svg xmlns="http://www.w3.org/2000/svg" viewBox="0 0 1081.4 223"><defs><style>.cls-1{fill:none;stroke:#424242;stroke-miterlimit:10;stroke-width:2px;}.cls-2,.cls-3,.cls-4,.cls-5{font-size:96.85px;letter-spacing:0.1em;}.cls-2{fill:#a55c55;}.cls-10,.cls-11,.cls-15,.cls-2,.cls-3,.cls-4,.cls-5,.cls-8,.cls-9{font-family:Moon-Bold, Moon;}.cls-10,.cls-12,.cls-15,.cls-2,.cls-3,.cls-4,.cls-5,.cls-8,.cls-9{font-weight:700;}.cls-3{fill:#dba67b;}.cls-4{fill:#458985;}.cls-5{fill:#074358;}.cls-10,.cls-11,.cls-15,.cls-6,.cls-7,.cls-9{font-size:65.77px;fill:#424242;}.cls-13,.cls-6,.cls-7{font-family:Moon-Light, Moon;}.cls-7{letter-spacing:0em;}.cls-10,.cls-14{letter-spacing:0em;}.cls-15{letter-spacing:0em;}</style></defs><title>资源 6</title><g id="图层_2" data-name="图层 2"><g id="图层_4" data-name="图层 4"><g id="logo"><g id="框"><rect id="_矩形_中" data-name="&lt;矩形&gt;中" class="cls-1" x="10.05" y="10.05" width="202.9" height="202.9"/><rect id="_矩形_下" data-name="&lt;矩形&gt;下" class="cls-1" x="19.1" y="19.1" width="202.9" height="202.9"/><rect id="_矩形_上" data-name="&lt;矩形&gt;上" class="cls-1" x="1" y="1" width="202.9" height="202.9"/></g><g id="文字"><text class="cls-2" transform="translate(116.13 193.83)">M</text><text class="cls-3" transform="translate(31.51 193.83)">D</text><text class="cls-4" transform="translate(124.95 101.44)">C</text><text class="cls-5" transform="translate(37.54 101.44)">S</text></g></g><text class="cls-6" transform="translate(245.49 98.18) scale(1.19 1)">Lab </text><text class="cls-7" transform="translate(407.41 98.18) scale(0.83 0.7)">OF</text><text class="cls-6" transform="translate(480.15 98.18) scale(1.19 1)"> <tspan class="cls-8" x="16.32" y="0">S</tspan></text><text class="cls-9" transform="translate(544.47 98.18) scale(0.83 0.7)">ERVICE</text><text class="cls-10" transform="translate(724.94 98.18) scale(1.19 1)"><tspan xml:space="preserve"> C</tspan></text><text class="cls-11" transform="translate(797.33 98.18) scale(0.83 0.7)"><tspan class="cls-12">OMPUTING</tspan><tspan class="cls-13" x="-288.35" y="112.76">AND</tspan></text><text class="cls-6" transform="translate(668.66 177.11) scale(1.19 1)"><tspan class="cls-14"> </tspan><tspan class="cls-8" x="16.31" y="0">D</tspan></text><text class="cls-9" transform="translate(742.74 177.11) scale(0.83 0.7)">aTA</text><text class="cls-15" transform="translate(845.14 177.11) scale(1.19 1)"><tspan xml:space="preserve"> M</tspan></text><text class="cls-9" transform="translate(931.8 177.11) scale(0.83 0.7)">iNING</text></g></g></svg>